<svg xmlns="http://www.w3.org/2000/svg" viewBox="0 0 512 512">
  <defs>
    <linearGradient id="bg" x1="0" x2="1" y1="0" y2="1">
      <stop stop-color="#171a20"/>
      <stop offset="1" stop-color="#050608"/>
    </linearGradient>
    <linearGradient id="gold" x1="0" x2="1">
      <stop stop-color="#fff1a8"/>
      <stop offset=".45" stop-color="#e1b84a"/>
      <stop offset="1" stop-color="#7b4a08"/>
    </linearGradient>
  </defs>
  <rect width="512" height="512" rx="112" fill="url(#bg)"/>
  <circle cx="256" cy="154" r="92" fill="url(#gold)"/>
  <path d="M197 199c20 49 31 91 20 142-7 31-28 53-43 92h164c-15-39-36-61-43-92-11-51 0-93 20-142-36 27-82 37-118 0Z" fill="url(#gold)"/>
  <path d="M184 395h144l27 62H157l27-62Z" fill="url(#gold)"/>
  <path d="M213 76c-31 54-17 111 41 147M309 79c19 48 0 103-51 140" fill="none" stroke="#fff7cf" stroke-width="15" stroke-linecap="round" opacity=".65"/>
</svg>
